<svg width="20" height="19" viewBox="0 0 25 24" fill="none" xmlns="http://www.w3.org/2000/svg">
  <path d="M4.98 3.5C4.98 4.63 4.08 5.54 2.95 5.54C1.82 5.54 0.91 4.63 0.91 3.5C0.91 2.37 1.82 1.46 2.95 1.46C4.08 1.46 4.98 2.37 4.98 3.5Z" fill="white" fill-opacity="0.6"/>
  <path d="M0.96 8.6H4.93V23.03H0.96V8.6Z" fill="white" fill-opacity="0.6"/>
  <path d="M8.1 8.6H11.8V10.39H11.85C12.39 9.43 13.78 8.39 15.84 8.39C20.54 8.39 21.11 11.12 21.11 15.14V23.03H17.12V15.89C17.12 14.18 17.1 11.98 14.85 11.98C12.57 11.98 12.2 13.77 12.2 15.77V23.03H8.2V8.6H8.1Z" fill="white" fill-opacity="0.6"/>
</svg>
