<svg width="23" height="22" viewBox="0 0 23 22" fill="none" xmlns="http://www.w3.org/2000/svg">
<path fill-rule="evenodd" clip-rule="evenodd" d="M11.5 2C6.52944 2 2.5 6.02944 2.5 11C2.5 15.9706 6.52944 20 11.5 20C16.4706 20 20.5 15.9706 20.5 11C20.5 6.02944 16.4706 2 11.5 2ZM0.5 11C0.5 4.92487 5.42487 0 11.5 0C17.5751 0 22.5 4.92487 22.5 11C22.5 17.0751 17.5751 22 11.5 22C5.42487 22 0.5 17.0751 0.5 11Z" fill="#6F7380"/>
<path d="M12.2071 6.29289C11.8166 5.90237 11.1834 5.90237 10.7929 6.29289C10.4024 6.68342 10.4024 7.31658 10.7929 7.70711L13.0858 10H7.5C6.94772 10 6.5 10.4477 6.5 11C6.5 11.5523 6.94772 12 7.5 12H13.0858L10.7929 14.2929C10.4024 14.6834 10.4024 15.3166 10.7929 15.7071C11.1834 16.0976 11.8166 16.0976 12.2071 15.7071L16.2071 11.7071C16.5976 11.3166 16.5976 10.6834 16.2071 10.2929L12.2071 6.29289Z" fill="#6F7380"/>
</svg>
